<mxfile><diagram id="goB41skcW6EB4Ol0iO-J" name="Page-1"><mxGraphModel dx="2531" dy="1718" grid="1" gridSize="10" guides="1" tooltips="1" connect="1" arrows="1" fold="1" page="1" pageScale="1" pageWidth="3300" pageHeight="2339" math="0" shadow="0"><root><mxCell id="0"/><mxCell id="1" parent="0"/><mxCell id="2" value="&lt;font style=&quot;font-size: 24px;&quot;&gt;GitHub Repository&lt;/font&gt;" style="shape=datastore;whiteSpace=wrap;html=1;fillColor=#007FFF;" vertex="1" parent="1"><mxGeometry x="870" y="530" width="240" height="260" as="geometry"/></mxCell><mxCell id="3" value="" style="endArrow=classic;html=1;fontSize=24;exitX=1;exitY=0.5;exitDx=0;exitDy=0;entryX=0;entryY=0.5;entryDx=0;entryDy=0;" edge="1" parent="1" source="2" target="4"><mxGeometry width="50" height="50" relative="1" as="geometry"><mxPoint x="1790" y="770" as="sourcePoint"/><mxPoint x="1430" y="660" as="targetPoint"/></mxGeometry></mxCell><mxCell id="4" value="Data Asset Creation Pipeline" style="shape=process;whiteSpace=wrap;html=1;backgroundOutline=1;fontSize=24;fillColor=#3333FF;" vertex="1" parent="1"><mxGeometry x="1440" y="562.5" width="370" height="195" as="geometry"/></mxCell><mxCell id="5" value="Experiment Configuration" style="rounded=1;whiteSpace=wrap;html=1;fontSize=24;fillColor=#007FFF;" vertex="1" parent="1"><mxGeometry x="855" y="250" width="270" height="120" as="geometry"/></mxCell><mxCell id="6" value="" style="endArrow=classic;html=1;fontSize=24;exitX=1;exitY=0.5;exitDx=0;exitDy=0;entryX=0;entryY=0.5;entryDx=0;entryDy=0;" edge="1" parent="1" source="5" target="4"><mxGeometry width="50" height="50" relative="1" as="geometry"><mxPoint x="1790" y="740" as="sourcePoint"/><mxPoint x="1840" y="690" as="targetPoint"/><Array as="points"><mxPoint x="1270" y="310"/><mxPoint x="1270" y="660"/></Array></mxGeometry></mxCell><mxCell id="7" value="Data Asset for CI Pipeline" style="shape=document;whiteSpace=wrap;html=1;boundedLbl=1;dashed=0;flipH=1;fontSize=24;fillColor=#007FFF;" vertex="1" parent="1"><mxGeometry x="2060" y="410" width="290" height="170" as="geometry"/></mxCell><mxCell id="8" value="Data Asset for PR Pipeline" style="shape=document;whiteSpace=wrap;html=1;boundedLbl=1;dashed=0;flipH=1;fontSize=24;fillColor=#007FFF;" vertex="1" parent="1"><mxGeometry x="2060" y="750" width="290" height="170" as="geometry"/></mxCell><mxCell id="9" value="" style="endArrow=classic;html=1;fontSize=24;exitX=1;exitY=0.5;exitDx=0;exitDy=0;entryX=0;entryY=0.5;entryDx=0;entryDy=0;" edge="1" parent="1" source="4" target="7"><mxGeometry width="50" height="50" relative="1" as="geometry"><mxPoint x="2410" y="740" as="sourcePoint"/><mxPoint x="2460" y="690" as="targetPoint"/><Array as="points"><mxPoint x="1910" y="660"/><mxPoint x="1910" y="495"/></Array></mxGeometry></mxCell><mxCell id="10" value="" style="endArrow=classic;html=1;fontSize=24;exitX=1;exitY=0.5;exitDx=0;exitDy=0;entryX=0;entryY=0.5;entryDx=0;entryDy=0;" edge="1" parent="1" source="4" target="8"><mxGeometry width="50" height="50" relative="1" as="geometry"><mxPoint x="1820" y="757.5" as="sourcePoint"/><mxPoint x="2070" y="592.5000000000002" as="targetPoint"/><Array as="points"><mxPoint x="1910" y="660"/><mxPoint x="1910" y="835"/></Array></mxGeometry></mxCell></root></mxGraphModel></diagram></mxfile>
